<?xml version="1.0" encoding="UTF-8" standalone="no"?>
<!--
  - Copyright (C) 2023  Intergral GmbH
  -
  - This program is free software: you can redistribute it and/or modify
  - it under the terms of the GNU Affero General Public License as published by
  - the Free Software Foundation, either version 3 of the License, or
  - (at your option) any later version.
  -
  - This program is distributed in the hope that it will be useful,
  - but WITHOUT ANY WARRANTY; without even the implied warranty of
  - MERCHANTABILITY or FITNESS FOR A PARTICULAR PURPOSE.  See the
  - GNU Affero General Public License for more details.
  -
  - You should have received a copy of the GNU Affero General Public License
  - along with this program.  If not, see <https://www.gnu.org/licenses/>.
  -->

<svg
        xmlns:dc="http://purl.org/dc/elements/1.1/"
        xmlns:cc="http://creativecommons.org/ns#"
        xmlns:rdf="http://www.w3.org/1999/02/22-rdf-syntax-ns#"
        xmlns="http://www.w3.org/2000/svg"
        id="svg15"
        xml:space="preserve"
        viewBox="0 0 1024 768"
        y="0px"
        x="0px"
        version="1.1"><metadata
     id="metadata21"><rdf:RDF><cc:Work
         rdf:about=""><dc:format>image/svg+xml</dc:format><dc:type
        rdf:resource="http://purl.org/dc/dcmitype/StillImage"/></cc:Work></rdf:RDF></metadata>
    <defs
            id="defs19"/>
    <linearGradient
            y2="565.2551"
            x2="714.6448"
            y1="196.7104"
            x1="346.1001"
            gradientUnits="userSpaceOnUse"
            id="SVGID_1_"><stop
       id="stop2"
       style="stop-color:#FFFFFF"
       offset="0" />
        <stop
                id="stop4"
                style="stop-color:#000000"
                offset="1"/></linearGradient>
    <g
            style="stroke-miterlimit:2"
            transform="matrix(1.3467,0,0,1.3467,-177.51,-131.54)"
            stroke-miterlimit="2"
            id="logo-group"><path
       d="m 356.67,512.2 h -32.031 v 87.584 h 32.031 c 8.7584,0 16.891,-2.0019 24.148,-6.0058 7.5072,-3.8787 13.263,-9.2589 17.642,-15.89 4.2541,-6.6314 6.3811,-14.013 6.3811,-21.896 0,-7.8826 -2.127,-15.39 -6.3811,-22.021 -4.3792,-6.6314 -10.135,-11.886 -17.642,-15.89 -7.257,-3.8787 -15.39,-5.8806 -24.148,-5.8806 z m -21.396,77.825 V 521.96 h 21.396 c 6.6314,0 12.637,1.3763 18.142,4.5043 5.3802,3.0029 9.7594,7.1318 13.138,12.387 3.128,5.255 4.7546,10.885 4.7546,17.141 0,6.256 -1.6266,11.761 -4.7546,17.016 -3.3782,5.255 -7.7574,9.384 -13.138,12.387 -5.5053,3.128 -11.511,4.6294 -18.142,4.6294 z"
       style="font-variant-ligatures:none;stroke:#000000;stroke-width:5.47399998"
       id="path239517" />
        <path
                d="m 440.82,599.78 h 61.559 v -9.7594 H 451.58 v -30.404 h 45.419 v -9.7594 H 451.58 v -27.902 h 48.171 v -9.76 h -58.932 z"
                style="font-variant-ligatures:none;stroke:#000000;stroke-width:5.47399998"
                id="path239519"/>
        <path
                d="m 537.93,599.78 h 61.559 v -9.7594 H 548.69 v -30.404 h 45.419 v -9.7594 H 548.69 v -27.902 h 48.171 v -9.76 h -58.932 z"
                style="font-variant-ligatures:none;stroke:#000000;stroke-width:5.47399998"
                id="path239521"/>
        <path
                d="m 672.46,512.2 h -37.411 v 87.584 h 10.76 v -38.912 h 26.651 c 5.0048,0 9.384,-1.1261 13.513,-3.2531 4.129,-2.2522 7.257,-5.1299 9.6342,-8.8835 2.5024,-3.7536 3.7536,-7.8826 3.7536,-12.262 0,-4.3792 -1.2512,-8.383 -3.7536,-12.137 -2.3773,-3.7536 -5.5053,-6.6314 -9.6342,-8.8835 -4.129,-2.127 -8.5082,-3.2531 -13.513,-3.2531 z m -26.651,38.912 v -29.153 h 26.651 c 4.3792,0 8.383,1.3763 11.386,4.2541 3.128,2.7526 4.7546,6.256 4.7546,10.26 0,4.129 -1.6266,7.6323 -4.7546,10.385 -3.0029,2.7526 -7.0067,4.2541 -11.386,4.2541 z"
                style="font-variant-ligatures:none;stroke:#000000;stroke-width:5.47399998"
                id="path239523"/>
        <path
                d="m 643.33,319.42 c 0,-93.744 -59.184,-151.2 -155.09,-151.2 h -79.056 c -15.552,0 -28.512,12.96 -28.512,28.512 v 245.38 c 0,15.552 12.96,28.512 28.512,28.512 15.984,0 28.944,-12.96 28.944,-28.512 v -218.6 h 50.112 c 64.8,0 98.064,33.264 98.064,95.904 0,25.056 -7.344,47.088 -20.304,63.072 l -9.936,11.232 c -12.096,12.096 -11.664,28.512 -3.024,38.88 10.368,12.096 28.512,13.392 40.608,3.456 31.968,-27.216 49.68,-71.28 49.68,-116.64 z M 466.64,442.11 c 0,15.552 12.96,28.512 28.512,28.512 15.984,0 28.944,-12.96 28.944,-28.512 0,-15.984 -12.96,-28.944 -28.944,-28.944 -15.552,0 -28.512,12.96 -28.512,28.944 z"
                style="font-variant-ligatures:normal;fill:#f57314;stroke:#f57314;stroke-width:10.19999981"
                id="path239526"/></g>
    <path
            id="path13"
            style="mix-blend-mode: overlay; opacity: 0.5"
            d="m373.54 88.131c-24.76 0-45.27 20.509-45.27 45.269v330.44c0 24.76 20.51 45.27 45.27 45.27 25.24 0 45.85-20.51 45.85-45.27v-287.51h60.61c42.46 0 73.43 10.8 93.94 30.97 20.51 20.18 31.26 50.36 31.26 91.32 0 32.37-9.49 60.45-25.77 80.56l-13.23 14.95 0.28-0.3c-18.54 18.54-18.34 44.99-4.49 61.61l0.03 0.04 0.03 0.03c16.38 19.12 45.15 21.2 64.26 5.49l0.05-0.03 0.05-0.04c44.88-38.21 69.32-99.44 69.32-162.31 0-64.57-20.53-117.52-58.07-154.07-37.54-36.56-91.71-56.419-157.66-56.419h-106.46zm115.77 329.87c-24.76 0-45.27 20.6-45.27 45.84 0 24.76 20.51 45.27 45.27 45.27 25.24 0 45.85-20.51 45.85-45.27 0-25.24-20.61-45.84-45.85-45.84zm-233.31 136.55v125.32h46.82c12.34 0 23.93-2.84 34.25-8.52 10.65-5.51 18.9-13.23 25.11-22.62l0.01-0.02 0.01-0.02c6.1-9.51 9.18-20.2 9.18-31.48s-3.07-22.12-9.18-31.65l-0.01-0.02-0.01-0.02c-6.23-9.42-14.5-16.96-25.1-22.62-10.32-5.51-21.9-8.35-34.26-8.35h-46.82zm156.45 0v125.32h3.69 86.59v-20.52h-68.42v-33.57h61.17v-20.51h-61.17v-30.21h64.88v-20.51h-86.74zm130.79 0v125.32h3.68 86.59v-20.52h-68.41v-33.57h61.16v-20.51h-61.16v-30.21h64.87v-20.51h-86.73zm130.78 0v125.32h21.86v-52.4h32.21c7.29 0 13.85-1.69 19.88-4.8l0.04-0.01 0.04-0.03c6.02-3.28 10.78-7.64 14.31-13.2 3.72-5.61 5.64-11.93 5.64-18.51s-1.94-12.76-5.64-18.33c-3.53-5.56-8.29-9.92-14.31-13.21l-0.04-0.02-0.04-0.02c-6.03-3.11-12.59-4.79-19.88-4.79h-54.07zm-396.33 20.51h25.13c8.42 0 15.8 1.72 22.61 5.59h0.02l0.01 0.01c6.71 3.75 12.11 8.83 16.34 15.4 3.89 6.55 5.86 13.38 5.86 21.15s-1.95 14.41-5.86 20.98c-4.23 6.57-9.63 11.65-16.34 15.4h-0.01l-0.02 0.01c-6.85 3.89-14.24 5.75-22.61 5.75h-25.13v-84.29zm418.19 0h32.21c5.12 0 9.49 1.56 12.78 4.71l0.06 0.05 0.05 0.05c3.53 3.1 5.16 6.66 5.16 11.05 0 4.59-1.63 8.12-5.16 11.22l-0.02 0.03-0.03 0.02c-3.33 3.05-7.79 4.76-12.84 4.76h-32.21v-31.89z"
            fill="url(#SVGID_1_)"/></svg>
